<?xml version="1.0" standalone="no"?>
<!DOCTYPE svg PUBLIC "-//W3C//DTD SVG 20010904//EN"
 "http://www.w3.org/TR/2001/REC-SVG-20010904/DTD/svg10.dtd">
<svg version="1.0" xmlns="http://www.w3.org/2000/svg"
 width="16.000000pt" height="16.000000pt" viewBox="0 0 16.000000 16.000000"
 preserveAspectRatio="xMidYMid meet">
<metadata>
Created by potrace 1.11, written by Peter Selinger 2001-2013
</metadata>
<g transform="translate(0.000000,16.000000) scale(0.001521,-0.001521)"
fill="#000000" stroke="none">
<path d="M7795 5740 c-123 -14 -240 -39 -351 -75 -471 -153 -795 -516 -880
-985 -12 -65 -17 -146 -17 -255 1 -484 180 -848 555 -1126 186 -137 369 -235
773 -409 519 -224 657 -306 745 -442 81 -124 94 -300 32 -432 -61 -130 -193
-227 -378 -278 -67 -18 -105 -21 -254 -21 -157 0 -185 3 -275 26 -119 32 -255
96 -345 165 -90 68 -205 193 -282 306 l-65 95 -399 -231 c-219 -127 -401 -232
-403 -234 -7 -6 74 -144 139 -236 257 -364 659 -621 1130 -722 187 -40 293
-50 520 -50 362 0 626 52 889 175 390 183 634 484 727 894 25 109 30 423 10
561 -44 299 -161 534 -370 739 -216 212 -477 363 -1069 619 -317 137 -443 202
-537 278 -170 138 -218 369 -118 561 52 98 142 164 273 202 47 14 84 17 184
13 136 -6 209 -25 306 -83 70 -41 168 -144 234 -245 l57 -88 379 243 c209 134
381 248 383 254 2 7 -31 64 -74 129 -92 139 -278 332 -394 409 -246 164 -511
240 -870 248 -96 2 -211 0 -255 -5z"/>
<path d="M4717 3903 c-2 -1696 -3 -1791 -21 -1848 -72 -237 -212 -334 -483
-335 -113 0 -179 13 -261 52 -113 53 -241 196 -351 391 -18 31 -35 57 -38 57
-10 0 -803 -481 -803 -487 0 -4 19 -40 41 -82 159 -291 408 -533 680 -660 397
-186 948 -212 1373 -64 520 180 806 590 856 1227 6 80 10 776 10 1832 l0 1704
-500 0 -500 0 -3 -1787z"/>
</g>
</svg>
